<svg xmlns="http://www.w3.org/2000/svg" width="1000" height="1000" viewBox="0 0 1000 1000">
<g>
<path d="M 472.00 713.91 C374.64,708.18 279.08,674.12 205.50,618.93 C182.11,601.39 155.61,576.45 138.65,556.03 C92.17,500.08 64.51,432.48 60.48,365.00 L 59.85 354.50 L 62.89 360.33 C72.66,379.02 90.89,396.76 115.76,411.77 C181.32,451.34 286.60,476.47 427.50,486.17 C447.80,487.57 530.68,487.92 555.91,486.72 C632.40,483.07 721.77,469.79 779.76,453.45 C849.54,433.78 902.76,403.50 931.27,367.25 C933.97,363.81 936.31,361.00 936.47,361.00 C937.77,361.00 933.49,395.69 930.42,410.00 C906.23,522.72 817.47,622.22 694.79,674.13 C648.02,693.93 588.13,708.84 538.62,713.01 C521.53,714.45 488.77,714.89 472.00,713.91 ZM 446.87 458.59 C446.67,458.41 438.37,457.97 428.44,457.60 C418.51,457.24 409.28,456.77 407.94,456.56 C406.60,456.35 401.00,455.89 395.50,455.54 C334.85,451.63 257.47,437.57 207.77,421.42 C158.99,405.57 123.09,385.47 106.08,364.50 C77.82,329.67 97.35,291.87 159.25,261.62 C190.34,246.43 226.52,235.24 277.50,225.07 C326.37,215.31 373.29,209.69 436.00,206.07 C453.97,205.04 542.46,205.04 562.00,206.08 C649.35,210.73 731.57,224.11 791.71,243.48 C837.22,258.13 873.49,278.75 889.78,299.22 C899.57,311.53 903.60,322.82 902.77,335.67 C902.36,342.13 901.61,344.51 897.21,353.32 C890.98,365.81 884.86,372.83 873.29,380.73 C807.94,425.36 704.64,450.91 561.00,457.96 C545.35,458.73 447.66,459.27 446.87,458.59 Z" fill="rgba(0,0,0,1)"/>
</g>
</svg>